PathFileType	4	(X/Y/Z)	Walk2.trc
DataRate	CameraRate	NumFrames	NumMarkers	Units	OrigDataRate	OrigDataStartFrame	OrigNumFrames
200.000000	200.000000	9	61	mm	200.000000	504	591
Frame#	Times		LFHD		RFHD		CLAV		STRN		LASI		RASI		RACR1		RUA1		RElbow		RFA1		RWRR		RWRU		RCAR		LACR1		LUA1		LElbow		LFA1		LWRR		RTH3		RTH2		RTB1		RTB3		RTB2		RTB4		LTH1		LTH3		LLFC		LMFC		LTB1		LTB2		LMT1		LWRU		LCAR		LTB3		RMFC		LTB4		RMMAL		LTH4		LTH2		RToe		RElbowM		RMT1		RLFC		RTH4		RTH1		LBHD		RCAL		RLMAL		LToe		RBack		RMT5		LMT5		RPSI		LLMAL		C7		LPSI		LMMAL		T10		LCAL		RBHD		LElbowM
			X1	Y1	Z1	X2	Y2	Z2	X3	Y3	Z3	X4	Y4	Z4	X5	Y5	Z5	X6	Y6	Z6	X7	Y7	Z7	X8	Y8	Z8	X9	Y9	Z9	X10	Y10	Z10	X11	Y11	Z11	X12	Y12	Z12	X13	Y13	Z13	X14	Y14	Z14	X15	Y15	Z15	X16	Y16	Z16	X17	Y17	Z17	X18	Y18	Z18	X19	Y19	Z19	X20	Y20	Z20	X21	Y21	Z21	X22	Y22	Z22	X23	Y23	Z23	X24	Y24	Z24	X25	Y25	Z25	X26	Y26	Z26	X27	Y27	Z27	X28	Y28	Z28	X29	Y29	Z29	X30	Y30	Z30	X31	Y31	Z31	X32	Y32	Z32	X33	Y33	Z33	X34	Y34	Z34	X35	Y35	Z35	X36	Y36	Z36	X37	Y37	Z37	X38	Y38	Z38	X39	Y39	Z39	X40	Y40	Z40	X41	Y41	Z41	X42	Y42	Z42	X43	Y43	Z43	X44	Y44	Z44	X45	Y45	Z45	X46	Y46	Z46	X47	Y47	Z47	X48	Y48	Z48	X49	Y49	Z49	X50	Y50	Z50	X51	Y51	Z51	X52	Y52	Z52	X53	Y53	Z53	X54	Y54	Z54	X55	Y55	Z55	X56	Y56	Z56	X57	Y57	Z57	X58	Y58	Z58	X59	Y59	Z59	X60	Y60	Z60	X61	Y61	Z61

504	2.52	972.62	1638.9	-103.21	968.9	1652.3	-5.0136	981.19	1388.7	-20.864	1054.3	1234	-6.3373	955.82	969.21	-173.24	945.35	975.35	185.53	858.09	1481.1	141.44	845.71	1323.8	274.05	868.72	1184.5	339.46	922.38	1043.6	369.54	966.84	926.43	311.66	954.23	935.41	392.68	1003.2	857.1	367.93	866.58	1432.9	-208.37	813.57	1261.8	-283.12	775.74	1100.7	-323.83	779.62	959.66	-333.77	819.58	831.83	-275.79	800.37	586.68	209.48	863.34	670.19	204.59	733.99	346.49	130.87	599.4	240.17	107.67	647.25	307.08	176.12	666.15	293.18	119.39	947.68	753.82	-198.09	1007.1	595.78	-169.85	1013.7	512.04	-166.44	1039.1	514.23	-10.946	1100.6	402.65	-102.54	1070.9	307.88	-135.14	1177.3	38.049	-48.764	768.34	820.18	-328.73	812.76	742.43	-306.42	1095.4	234.8	-64.543	773.6	475.01	48.065	1102.4	320.47	-82.245	477.01	177.24	42.046	975.83	675.36	-183.23	1029.5	698.2	-169.63	539.67	23.897	97.497	825.89	1097.5	253.1	504.96	41.546	58.492	756.75	481.49	202.53	806.53	671.96	215.93	810.67	758.49	222.66	825.58	1554.9	-111.37	388.78	220.38	73.649	438.54	191.46	123.23	1222.9	41.969	-86.647	721.16	1351.5	93.94	458.22	55.902	142.85	1109.9	24.76	-123.26	689.49	1008.7	31.366	1012.7	72.583	-58.667	785.19	1462.1	-31.492	705.86	1011.5	-52.105	1043.9	85.217	24.783	732.19	1145.7	-2.7664	968.2	43.915	1.1465	834.58	1580.6	37.494	715.74	1055.7	-223.08
505	2.525	978.77	1640	-104.19	974.93	1653.4	-6.008	987.43	1389.9	-21.81	1060.7	1235.2	-7.1363	962.04	970.35	-174.38	952.53	976.17	183.76	864.38	1482.3	140.44	851.57	1325.2	273.12	873.83	1185.6	338.37	926.76	1044.3	368.48	970.54	926.96	310.56	957.98	935.99	391.58	1006.3	857.15	366.75	872.9	1433.9	-209.24	820.56	1262.5	-283.88	783.59	1101.1	-324.51	788.6	960.18	-334.43	829.71	832.68	-276.55	811.93	586.57	210.18	873.71	670.9	204.67	745.45	346.95	132.07	609.26	242.59	109.08	658.03	308.93	177.39	676.8	294.66	120.7	952.73	754.11	-198.78	1011.2	595.74	-170.3	1017.2	511.99	-166.73	1042.9	514.18	-11.254	1103.5	401.98	-102.7	1073	307.39	-135.21	1177.4	37.901	-48.6	778.5	820.66	-329.4	823.75	743.36	-307.42	1096.9	234.21	-64.501	786.72	474.32	49.065	1104.6	319.82	-82.305	485.83	181.58	43.522	980.32	675.48	-183.73	1034.2	697.99	-170.38	543.1	23.808	98.043	830.71	1099	251.8	509.8	44.161	58.986	769.32	481.5	203.59	816.95	671.96	216.24	819.92	758.57	222.48	831.78	1555.8	-112.43	398.83	226.82	75.279	447.57	196.29	124.7	1223.4	41.321	-86.525	727.52	1352.7	93.23	463.55	59.374	143.38	1109.9	24.877	-123.26	696.05	1009.2	30.828	1013.1	72.645	-58.546	791.44	1463.1	-32.416	712.24	1012.6	-52.904	1044.2	85.096	24.951	738.56	1146.7	-3.5786	968.29	44.047	1.2293	840.6	1581.7	36.426	724.18	1055.7	-223.58
506	2.53	984.9	1641	-105.11	980.94	1654.5	-6.9343	993.66	1391.1	-22.725	1067.1	1236.4	-7.9373	968.21	971.48	-175.52	959.62	977.01	182.01	870.65	1483.5	139.49	857.37	1326.5	272.22	878.93	1186.7	337.31	931.14	1045.1	367.42	974.21	927.47	309.44	961.73	936.56	390.47	1009.3	857.18	365.55	879.21	1435	-210.08	827.57	1263.2	-284.63	791.46	1101.6	-325.19	797.61	960.75	-335.09	839.91	833.61	-277.31	823.57	586.52	210.83	884.14	671.68	204.73	757.16	347.5	133.12	619.46	245.03	110.35	669.16	310.74	178.54	687.75	296.2	121.87	957.74	754.42	-199.43	1015.1	595.72	-170.72	1020.6	511.93	-167.01	1046.5	514.1	-11.545	1106.2	401.32	-102.85	1075.1	306.9	-135.29	1177.6	37.801	-48.463	788.71	821.2	-330.04	834.85	744.39	-308.42	1098.4	233.65	-64.462	799.98	473.77	49.968	1106.7	319.19	-82.361	495.01	185.87	44.935	984.76	675.62	-184.22	1038.8	697.79	-171.05	547.3	23.859	98.688	835.52	1100.4	250.56	515.38	46.929	59.604	782.05	481.55	204.56	827.43	671.99	216.54	829.21	758.68	222.3	837.96	1556.8	-113.43	409.18	233.01	76.932	457.03	201.02	126.15	1223.8	40.73	-86.434	733.84	1353.8	92.51	469.66	63.039	144.05	1110	24.988	-123.26	702.55	1009.8	30.248	1013.4	72.702	-58.436	797.67	1464.1	-33.318	718.56	1013.7	-53.725	1044.4	84.984	25.105	744.87	1147.7	-4.4134	968.37	44.169	1.3077	846.61	1582.7	35.417	732.63	1055.7	-224.11
507	2.535	991.01	1642.1	-105.96	986.93	1655.6	-7.7937	999.86	1392.3	-23.607	1073.4	1237.5	-8.742	974.31	972.58	-176.66	966.63	977.87	180.28	876.9	1484.6	138.59	863.1	1327.8	271.35	884.01	1187.8	336.29	935.51	1045.8	366.37	977.85	927.96	308.33	965.47	937.1	389.37	1012.3	857.18	364.34	885.51	1436.1	-210.9	834.58	1264	-285.38	799.35	1102.1	-325.88	806.65	961.36	-335.76	850.17	834.61	-278.08	835.3	586.54	211.43	894.63	672.53	204.76	769.1	348.15	134.01	629.99	247.49	111.47	680.61	312.52	179.57	698.98	297.79	122.88	962.69	754.75	-200.04	1019	595.7	-171.12	1023.9	511.87	-167.29	1050	513.99	-11.823	1108.8	400.68	-102.98	1077.1	306.43	-135.37	1177.7	37.737	-48.35	798.97	821.79	-330.68	846.05	745.51	-309.43	1099.7	233.1	-64.426	813.34	473.37	50.771	1108.7	318.57	-82.413	504.55	190.08	46.274	989.14	675.78	-184.69	1043.3	697.6	-171.66	552.34	24.087	99.43	840.32	1101.8	249.37	521.76	49.814	60.34	794.91	481.64	205.46	837.96	672.08	216.8	838.52	758.82	222.12	844.11	1557.7	-114.38	419.81	238.89	78.589	466.91	205.62	127.57	1224.2	40.187	-86.369	740.12	1355	91.779	476.59	66.846	144.87	1110	25.091	-123.27	708.99	1010.4	29.634	1013.7	72.755	-58.337	803.9	1465.1	-34.195	724.84	1014.9	-54.562	1044.7	84.883	25.243	751.14	1148.7	-5.2616	968.44	44.286	1.3805	852.61	1583.8	34.468	741.09	1055.9	-224.66
508	2.54	997.09	1643.1	-106.76	992.89	1656.7	-8.5881	1006	1393.5	-24.457	1079.7	1238.7	-9.5518	980.36	973.64	-177.79	973.56	978.76	178.61	883.12	1485.8	137.73	868.77	1329	270.52	889.08	1188.8	335.3	939.88	1046.5	365.33	981.47	928.42	307.22	969.2	937.6	388.26	1015.3	857.17	363.13	891.8	1437.2	-211.68	841.6	1264.8	-286.13	807.26	1102.7	-326.59	815.73	962.02	-336.43	860.5	835.68	-278.85	847.07	586.64	211.97	905.14	673.46	204.77	781.26	348.9	134.74	640.83	249.94	112.44	692.36	314.26	180.47	710.47	299.44	123.73	967.59	755.1	-200.63	1022.7	595.7	-171.51	1027.2	511.81	-167.56	1053.4	513.86	-12.091	1111.3	400.05	-103.11	1079	305.97	-135.44	1177.8	37.7	-48.26	809.29	822.42	-331.29	857.35	746.71	-310.45	1101	232.57	-64.393	826.75	473.15	51.473	1110.6	317.97	-82.463	514.46	194.18	47.532	993.47	675.96	-185.15	1047.8	697.41	-172.22	558.28	24.522	100.26	845.09	1103.2	248.23	528.97	52.776	61.183	807.89	481.8	206.27	848.51	672.23	217.02	847.84	759.01	221.93	850.24	1558.7	-115.27	430.7	244.42	80.223	477.2	210.05	128.95	1224.5	39.683	-86.328	746.35	1356.1	91.039	484.35	70.731	145.81	1110	25.184	-123.28	715.38	1011	28.995	1013.9	72.803	-58.249	810.11	1466.1	-35.046	731.06	1016.1	-55.405	1044.9	84.791	25.367	757.35	1149.7	-6.1141	968.49	44.4	1.4478	858.59	1584.8	33.577	749.55	1056	-225.24
509	2.545	1003.2	1644.2	-107.49	998.84	1657.8	-9.3198	1012.2	1394.6	-25.274	1086	1239.8	-10.367	986.36	974.66	-178.91	980.4	979.67	176.99	889.33	1486.9	136.91	874.38	1330.2	269.72	894.14	1189.8	334.34	944.25	1047.2	364.3	985.07	928.84	306.12	972.93	938.06	387.17	1018.3	857.13	361.93	898.07	1438.3	-212.42	848.63	1265.6	-286.87	815.19	1103.3	-327.31	824.84	962.7	-337.1	870.88	836.8	-279.62	858.88	586.84	212.43	915.67	674.48	204.75	793.61	349.77	135.31	651.96	252.38	113.26	704.4	315.95	181.24	722.21	301.14	124.43	972.44	755.46	-201.18	1026.5	595.7	-171.88	1030.4	511.75	-167.84	1056.6	513.71	-12.352	1113.6	399.43	-103.23	1080.8	305.52	-135.52	1177.9	37.682	-48.189	819.66	823.08	-331.9	868.72	747.99	-311.46	1102.3	232.06	-64.364	840.18	473.13	52.078	1112.4	317.39	-82.511	524.72	198.12	48.703	997.75	676.15	-185.6	1052.2	697.22	-172.72	565.18	25.189	101.17	849.84	1104.5	247.15	537.03	55.772	62.123	820.96	482.05	207	859.08	672.46	217.2	857.16	759.26	221.71	856.35	1559.6	-116.1	441.82	249.56	81.811	487.88	214.26	130.27	1224.8	39.21	-86.309	752.55	1357.3	90.291	492.94	74.627	146.86	1110	25.267	-123.29	721.71	1011.7	28.336	1014.2	72.847	-58.169	816.3	1467.2	-35.869	737.23	1017.3	-56.246	1045.1	84.707	25.476	763.52	1150.8	-6.9628	968.54	44.513	1.51	864.56	1585.8	32.744	758.03	1056.2	-225.85
510	2.55	1009.2	1645.3	-108.17	1004.8	1658.8	-9.9914	1018.4	1395.7	-26.059	1092.2	1240.8	-11.188	992.3	975.64	-180	987.15	980.62	175.45	895.51	1488	136.14	879.94	1331.4	268.95	899.2	1190.8	333.43	948.61	1047.8	363.29	988.65	929.22	305.02	976.66	938.49	386.08	1021.3	857.07	360.73	904.32	1439.4	-213.14	855.66	1266.4	-287.61	823.16	1103.9	-328.05	833.99	963.4	-337.78	881.31	837.97	-280.39	870.7	587.14	212.83	926.2	675.59	204.7	806.13	350.75	135.75	663.39	254.78	113.93	716.69	317.59	181.89	734.18	302.87	124.98	977.24	755.84	-201.71	1030.1	595.71	-172.25	1033.5	511.68	-168.11	1059.6	513.54	-12.606	1115.9	398.83	-103.35	1082.5	305.09	-135.59	1178	37.675	-48.135	830.07	823.77	-332.49	880.17	749.33	-312.47	1103.5	231.57	-64.339	853.58	473.32	52.591	1114.2	316.82	-82.557	535.36	201.88	49.786	1002	676.35	-186.03	1056.6	697.03	-173.18	573.09	26.095	102.15	854.57	1105.8	246.12	545.97	58.757	63.146	834.09	482.4	207.64	869.66	672.78	217.33	866.48	759.57	221.48	862.44	1560.6	-116.88	453.17	254.27	83.331	498.95	218.23	131.52	1225.1	38.762	-86.307	758.71	1358.4	89.537	502.38	78.462	148.01	1110.1	25.341	-123.32	727.99	1012.4	27.664	1014.4	72.887	-58.098	822.47	1468.2	-36.659	743.36	1018.5	-57.076	1045.3	84.631	25.573	769.65	1151.8	-7.8004	968.59	44.626	1.5681	870.53	1586.7	31.966	766.51	1056.4	-226.49
511	2.555	1015.2	1646.4	-108.8	1010.7	1659.9	-10.606	1024.5	1396.8	-26.812	1098.4	1241.9	-12.014	998.2	976.58	-181.08	993.8	981.59	173.99	901.68	1489	135.42	885.46	1332.5	268.22	904.25	1191.7	332.55	952.98	1048.4	362.29	992.23	929.56	303.94	980.38	938.87	385.01	1024.3	856.98	359.54	910.54	1440.6	-213.83	862.7	1267.3	-288.34	831.15	1104.5	-328.8	843.18	964.12	-338.46	891.78	839.19	-281.16	882.52	587.57	213.15	936.72	676.81	204.61	818.81	351.85	136.05	675.11	257.14	114.47	729.23	319.18	182.43	746.36	304.64	125.4	981.99	756.22	-202.22	1033.7	595.73	-172.6	1036.5	511.62	-168.38	1062.5	513.35	-12.853	1118.1	398.25	-103.46	1084.2	304.66	-135.67	1178	37.675	-48.094	840.53	824.5	-333.08	891.69	750.74	-313.47	1104.6	231.09	-64.318	866.92	473.72	53.018	1115.9	316.27	-82.601	546.36	205.41	50.778	1006.1	676.56	-186.46	1060.9	696.84	-173.6	582.03	27.236	103.19	859.28	1107	245.14	555.78	61.683	64.238	847.27	482.88	208.19	880.22	673.19	217.41	875.79	759.97	221.22	868.5	1561.6	-117.61	464.75	258.51	84.762	510.39	221.91	132.7	1225.4	38.334	-86.321	764.83	1359.5	88.781	512.63	82.167	149.21	1110.1	25.405	-123.35	734.23	1013.1	26.984	1014.6	72.926	-58.034	828.62	1469.2	-37.415	749.44	1019.6	-57.888	1045.5	84.562	25.66	775.74	1152.8	-8.6212	968.63	44.739	1.6233	876.49	1587.7	31.244	775	1056.6	-227.17
512	2.56	1021.3	1647.5	-109.37	1016.6	1660.9	-11.166	1030.6	1397.9	-27.532	1104.5	1242.9	-12.844	1004.1	977.47	-182.12	1000.4	982.6	172.63	907.82	1490	134.75	890.94	1333.6	267.5	909.3	1192.5	331.7	957.35	1048.9	361.31	995.8	929.86	302.88	984.1	939.2	383.95	1027.3	856.88	358.38	916.73	1441.7	-214.48	869.75	1268.1	-289.06	839.18	1105.1	-329.57	852.41	964.86	-339.16	902.3	840.44	-281.92	894.32	588.12	213.41	947.21	678.13	204.49	831.62	353.05	136.25	687.11	259.41	114.89	741.98	320.72	182.88	758.76	306.42	125.7	986.7	756.61	-202.72	1037.2	595.74	-172.94	1039.4	511.55	-168.64	1065.2	513.15	-13.094	1120.3	397.68	-103.57	1085.9	304.25	-135.75	1178.1	37.678	-48.066	851.04	825.24	-333.66	903.27	752.21	-314.45	1105.7	230.63	-64.3	880.17	474.33	53.366	1117.5	315.74	-82.645	557.74	208.67	51.679	1010.3	676.77	-186.88	1065.1	696.64	-173.99	592.01	28.587	104.28	863.98	1108.1	244.21	566.47	64.502	65.385	860.47	483.49	208.66	890.77	673.71	217.44	885.09	760.45	220.93	874.55	1562.6	-118.29	476.55	262.25	86.086	522.18	225.28	133.79	1225.7	37.922	-86.346	770.92	1360.5	88.025	523.67	85.674	150.45	1110.1	25.461	-123.39	740.43	1013.9	26.297	1014.8	72.963	-57.975	834.74	1470.3	-38.134	755.47	1020.8	-58.674	1045.7	84.498	25.737	781.79	1153.8	-9.4217	968.68	44.855	1.6768	882.45	1588.6	30.575	783.49	1056.8	-227.89
